<svg width="185" height="24" viewBox="0 0 185 24" fill="none" xmlns="http://www.w3.org/2000/svg">
<path d="M12 5C8.13401 5 5 8.13401 5 12C5 15.866 8.13401 19 12 19C14.7924 19 17.2029 17.3649 18.3264 15H21H22.5859C21.2801 19.617 17.0351 23 12 23C5.92487 23 1 18.0751 1 12C1 5.92487 5.92487 1 12 1C17.0351 1 21.2801 4.38299 22.5859 9H21H18.3264C17.2029 6.63505 14.7924 5 12 5Z" fill="url(#paint0_linear_116_32)"/>
<path d="M36.496 12.24C36.496 11.5467 36.6187 10.8693 36.864 10.208C37.12 9.536 37.488 8.928 37.968 8.384C38.448 7.82933 39.0347 7.392 39.728 7.072C40.4213 6.74133 41.2107 6.576 42.096 6.576C43.1413 6.576 44.0427 6.80533 44.8 7.264C45.568 7.72267 46.1387 8.32 46.512 9.056L44.816 10.224C44.624 9.79733 44.3733 9.46133 44.064 9.216C43.7547 8.96 43.424 8.784 43.072 8.688C42.72 8.58133 42.3733 8.528 42.032 8.528C41.4773 8.528 40.992 8.64 40.576 8.864C40.1707 9.088 39.8293 9.38133 39.552 9.744C39.2747 10.1067 39.0667 10.512 38.928 10.96C38.8 11.408 38.736 11.856 38.736 12.304C38.736 12.8053 38.816 13.2907 38.976 13.76C39.136 14.2187 39.36 14.6293 39.648 14.992C39.9467 15.344 40.2987 15.6267 40.704 15.84C41.12 16.0427 41.5733 16.144 42.064 16.144C42.416 16.144 42.7733 16.0853 43.136 15.968C43.4987 15.8507 43.8347 15.664 44.144 15.408C44.4533 15.152 44.6933 14.8213 44.864 14.416L46.672 15.456C46.448 16.0213 46.08 16.5013 45.568 16.896C45.0667 17.2907 44.5013 17.5893 43.872 17.792C43.2427 17.9947 42.6187 18.096 42 18.096C41.1893 18.096 40.448 17.9307 39.776 17.6C39.104 17.2587 38.5227 16.8107 38.032 16.256C37.552 15.6907 37.1733 15.0613 36.896 14.368C36.6293 13.664 36.496 12.9547 36.496 12.24ZM53.8601 18.08C53.0281 18.08 52.2708 17.92 51.5881 17.6C50.9161 17.28 50.3348 16.848 49.8441 16.304C49.3641 15.7493 48.9908 15.1307 48.7241 14.448C48.4575 13.7547 48.3241 13.0453 48.3241 12.32C48.3241 11.5627 48.4628 10.8427 48.7401 10.16C49.0281 9.46667 49.4175 8.85333 49.9081 8.32C50.4095 7.776 50.9961 7.34933 51.6681 7.04C52.3508 6.72 53.0975 6.56 53.9081 6.56C54.7295 6.56 55.4761 6.72533 56.1481 7.056C56.8308 7.38667 57.4121 7.82933 57.8921 8.384C58.3721 8.93867 58.7455 9.55733 59.0121 10.24C59.2788 10.9227 59.4121 11.6267 59.4121 12.352C59.4121 13.0987 59.2735 13.8187 58.9961 14.512C58.7188 15.1947 58.3295 15.808 57.8281 16.352C57.3375 16.8853 56.7508 17.3067 56.0681 17.616C55.3961 17.9253 54.6601 18.08 53.8601 18.08ZM50.5641 12.32C50.5641 12.8107 50.6388 13.2853 50.7881 13.744C50.9375 14.2027 51.1508 14.6133 51.4281 14.976C51.7161 15.328 52.0628 15.6107 52.4681 15.824C52.8841 16.0267 53.3535 16.128 53.8761 16.128C54.4095 16.128 54.8841 16.0213 55.3001 15.808C55.7161 15.584 56.0628 15.2907 56.3401 14.928C56.6175 14.5547 56.8255 14.144 56.9641 13.696C57.1135 13.2373 57.1881 12.7787 57.1881 12.32C57.1881 11.8293 57.1081 11.36 56.9481 10.912C56.7988 10.4533 56.5801 10.048 56.2921 9.696C56.0148 9.33333 55.6681 9.05067 55.2521 8.848C54.8468 8.63467 54.3881 8.528 53.8761 8.528C53.3321 8.528 52.8521 8.64 52.4361 8.864C52.0308 9.07733 51.6895 9.36533 51.4121 9.728C51.1348 10.0907 50.9215 10.496 50.7721 10.944C50.6335 11.392 50.5641 11.8507 50.5641 12.32ZM71.3699 18V10.544L68.4579 16.096H67.2259L64.3139 10.544V18H62.1059V6.64H64.4739L67.8339 13.104L71.2259 6.64H73.5779V18H71.3699ZM76.9496 18V6.64H81.7656C82.2883 6.64 82.7683 6.74667 83.2056 6.96C83.643 7.17333 84.0216 7.46133 84.3416 7.824C84.6723 8.18667 84.9283 8.592 85.1096 9.04C85.291 9.488 85.3816 9.94667 85.3816 10.416C85.3816 11.056 85.2323 11.664 84.9336 12.24C84.635 12.816 84.2243 13.2853 83.7016 13.648C83.179 14.0107 82.5603 14.192 81.8456 14.192H79.1576V18H76.9496ZM79.1576 12.256H81.7176C81.9843 12.256 82.2243 12.1813 82.4376 12.032C82.651 11.8827 82.8216 11.6693 82.9496 11.392C83.0776 11.104 83.1416 10.7787 83.1416 10.416C83.1416 10.0213 83.067 9.68533 82.9176 9.408C82.779 9.13067 82.5923 8.92267 82.3576 8.784C82.1336 8.64533 81.8883 8.576 81.6216 8.576H79.1576V12.256ZM90.1783 6.64H92.4183L96.5943 18H94.3223L93.2663 15.168H89.2983L88.2582 18H85.9863L90.1783 6.64ZM92.8663 13.616L91.2983 8.928L89.6663 13.616H92.8663ZM101.048 10.704V18H98.8403V6.64H100.6L106.472 14.128V6.656H108.68V18H106.84L101.048 10.704ZM113.323 6.64L116.123 11.984L118.971 6.64H121.355L117.227 14.032V18H115.035V14L110.923 6.64H113.323ZM123.606 18V6.64H125.814V18H123.606ZM131.392 10.704V18H129.184V6.64H130.944L136.816 14.128V6.656H139.024V18H137.184L131.392 10.704ZM143.555 6.64L146.627 15.376L149.667 6.64H151.987L147.683 18H145.555L141.235 6.64H143.555ZM162.088 16.064V18H154.2V6.64H161.944V8.576H156.408V11.312H161.192V13.104H156.408V16.064H162.088ZM171.577 9.616C171.502 9.54133 171.364 9.44 171.161 9.312C170.969 9.184 170.729 9.06133 170.441 8.944C170.164 8.82667 169.86 8.72533 169.529 8.64C169.198 8.544 168.862 8.496 168.521 8.496C167.924 8.496 167.47 8.608 167.161 8.832C166.862 9.056 166.713 9.37067 166.713 9.776C166.713 10.0853 166.809 10.3307 167.001 10.512C167.193 10.6933 167.481 10.848 167.865 10.976C168.249 11.104 168.729 11.2427 169.305 11.392C170.052 11.5733 170.697 11.7973 171.241 12.064C171.796 12.32 172.217 12.6613 172.505 13.088C172.804 13.504 172.953 14.0587 172.953 14.752C172.953 15.36 172.841 15.8827 172.617 16.32C172.393 16.7467 172.084 17.0933 171.689 17.36C171.294 17.6267 170.846 17.824 170.345 17.952C169.844 18.0693 169.31 18.128 168.745 18.128C168.18 18.128 167.614 18.0693 167.049 17.952C166.484 17.8347 165.94 17.6693 165.417 17.456C164.894 17.232 164.414 16.9653 163.977 16.656L164.953 14.752C165.049 14.848 165.22 14.976 165.465 15.136C165.71 15.2853 166.009 15.44 166.361 15.6C166.713 15.7493 167.097 15.8773 167.513 15.984C167.929 16.0907 168.35 16.144 168.777 16.144C169.374 16.144 169.828 16.0427 170.137 15.84C170.446 15.6373 170.601 15.3493 170.601 14.976C170.601 14.6347 170.478 14.368 170.233 14.176C169.988 13.984 169.646 13.8187 169.209 13.68C168.772 13.5307 168.254 13.3707 167.657 13.2C166.942 12.9973 166.345 12.7733 165.865 12.528C165.385 12.272 165.028 11.952 164.793 11.568C164.558 11.184 164.441 10.704 164.441 10.128C164.441 9.34933 164.622 8.69867 164.985 8.176C165.358 7.64267 165.86 7.24267 166.489 6.976C167.118 6.69867 167.817 6.56 168.585 6.56C169.118 6.56 169.62 6.61867 170.089 6.736C170.569 6.85333 171.017 7.008 171.433 7.2C171.849 7.392 172.222 7.6 172.553 7.824L171.577 9.616ZM184.118 8.576H180.486V18H178.294V8.576H174.662V6.64H184.118V8.576Z" fill="#242731"/>
<defs>
<linearGradient id="paint0_linear_116_32" x1="16.6498" y1="1" x2="11.6142" y2="22.959" gradientUnits="userSpaceOnUse">
<stop stop-color="#9ECBFF"/>
<stop offset="0.411458" stop-color="#6FA0FF"/>
<stop offset="1" stop-color="#AF93FF"/>
</linearGradient>
</defs>
</svg>
